<svg xmlns="http://www.w3.org/2000/svg" xmlns:xlink="http://www.w3.org/1999/xlink" xmlns:lucid="lucid" width="724.28" height="652.6"><g transform="translate(-639.000026433121 -59.00004999999996)" lucid:page-tab-id="0_0"><path d="M500 0h1000v1000H500z" fill="#fff"/><path d="M979.9 188h27.85a12 12 0 0 1 12 12v196a12 12 0 0 0 12 12H1059M960.72 188h20m-20 10l20-10m-20-10l20 10M1079 408h-20m0-10v20M659.5 188h-8a12 12 0 0 0-12 12v366.1a12 12 0 0 0 12 12h28M679.5 188h-20m0-10v20M699.28 578.1h-20m20-10l-20 10m20 10l-20-10m0-10v20" stroke="#333" fill="none"/><path d="M680 105a5 5 0 0 1 5-5h270a5 5 0 0 1 5 5v314a5 5 0 0 1-5 5H685a5 5 0 0 1-5-5z" fill="#fff"/><path d="M680 140v-35a5 5 0 0 1 5-5h270a5 5 0 0 1 5 5v35" fill="#dedeff"/><path d="M680 105a5 5 0 0 1 5-5h270a5 5 0 0 1 5 5v314a5 5 0 0 1-5 5H685a5 5 0 0 1-5-5zM680 140h280M820 140v284" stroke="#282c33" fill="none"/><use xlink:href="#a" transform="matrix(1,0,0,1,690,100) translate(0 23.6)"/><use xlink:href="#b" transform="matrix(1,0,0,1,685,142.5) translate(0 17.1)"/><use xlink:href="#c" transform="matrix(1,0,0,1,685,142.5) translate(18.95 17.1)"/><use xlink:href="#d" transform="matrix(1,0,0,1,825,142.5) translate(0 17.1)"/><use xlink:href="#e" transform="matrix(1,0,0,1,685,174.5) translate(0 17.1)"/><use xlink:href="#f" transform="matrix(1,0,0,1,825,174.5) translate(0 17.1)"/><use xlink:href="#g" transform="matrix(1,0,0,1,685,206.5) translate(0 31.1)"/><use xlink:href="#h" transform="matrix(1,0,0,1,825,206.5) translate(0 17.917786666666665)"/><use xlink:href="#i" transform="matrix(1,0,0,1,825,206.5) translate(0 44.904453333333336)"/><use xlink:href="#j" transform="matrix(1,0,0,1,685,266.5) translate(0 17.1)"/><use xlink:href="#f" transform="matrix(1,0,0,1,825,266.5) translate(0 17.1)"/><use xlink:href="#k" transform="matrix(1,0,0,1,685,298.5) translate(0 17.1)"/><use xlink:href="#f" transform="matrix(1,0,0,1,825,298.5) translate(0 17.1)"/><use xlink:href="#l" transform="matrix(1,0,0,1,685,330.5) translate(0 17.1)"/><use xlink:href="#m" transform="matrix(1,0,0,1,825,330.5) translate(0 17.1)"/><use xlink:href="#n" transform="matrix(1,0,0,1,685,362.5) translate(0 17.1)"/><use xlink:href="#o" transform="matrix(1,0,0,1,825,362.5) translate(0 17.1)"/><use xlink:href="#p" transform="matrix(1,0,0,1,685,394.5) translate(0 17.1)"/><use xlink:href="#q" transform="matrix(1,0,0,1,685,394.5) translate(77.85000000000001 17.1)"/><use xlink:href="#d" transform="matrix(1,0,0,1,825,394.5) translate(0 17.1)"/><path d="M1079.5 325a5 5 0 0 1 5-5h270a5 5 0 0 1 5 5v94a5 5 0 0 1-5 5h-270a5 5 0 0 1-5-5z" fill="#fff"/><path d="M1079.5 360v-35a5 5 0 0 1 5-5h270a5 5 0 0 1 5 5v35" fill="#dedeff"/><path d="M1079.5 325a5 5 0 0 1 5-5h270a5 5 0 0 1 5 5v94a5 5 0 0 1-5 5h-270a5 5 0 0 1-5-5zM1079.5 360h280M1219.5 360v64" stroke="#282c33" fill="none"/><use xlink:href="#r" transform="matrix(1,0,0,1,1089.5,320) translate(0 23.6)"/><use xlink:href="#s" transform="matrix(1,0,0,1,1084.5,362.5) translate(0 17.1)"/><use xlink:href="#t" transform="matrix(1,0,0,1,1084.5,362.5) translate(18.95 17.1)"/><use xlink:href="#u" transform="matrix(1,0,0,1,1224.5,362.5) translate(0 17.1)"/><use xlink:href="#v" transform="matrix(1,0,0,1,1084.5,394.5) translate(0 17.1)"/><use xlink:href="#w" transform="matrix(1,0,0,1,1224.5,394.5) translate(0 17.1)"/><path d="M700 495.1a5 5 0 0 1 5-5h249.5a5 5 0 0 1 5 5v211a5 5 0 0 1-5 5H705a5 5 0 0 1-5-5z" fill="#fff"/><path d="M700 530.1v-35a5 5 0 0 1 5-5h249.5a5 5 0 0 1 5 5v35" fill="#dedeff"/><path d="M700 495.1a5 5 0 0 1 5-5h249.5a5 5 0 0 1 5 5v211a5 5 0 0 1-5 5H705a5 5 0 0 1-5-5zM700 530.1h259.5M838.28 530.1v181" stroke="#282c33" fill="none"/><use xlink:href="#x" transform="matrix(1,0,0,1,710,490.1040595060007) translate(0 23.6)"/><use xlink:href="#b" transform="matrix(1,0,0,1,705,532.6040595060007) translate(0 17.1)"/><use xlink:href="#c" transform="matrix(1,0,0,1,705,532.6040595060007) translate(18.95 17.1)"/><use xlink:href="#d" transform="matrix(1,0,0,1,843.2798345758615,532.6040595060007) translate(0 17.1)"/><use xlink:href="#y" transform="matrix(1,0,0,1,705,564.6040595060007) translate(0 17.1)"/><use xlink:href="#z" transform="matrix(1,0,0,1,705,564.6040595060007) translate(63.900000000000006 17.1)"/><use xlink:href="#u" transform="matrix(1,0,0,1,843.2798345758615,564.6040595060007) translate(0 17.1)"/><use xlink:href="#A" transform="matrix(1,0,0,1,705,596.6040595060007) translate(0 17.1)"/><use xlink:href="#B" transform="matrix(1,0,0,1,843.2798345758615,596.6040595060007) translate(0 17.1)"/><use xlink:href="#C" transform="matrix(1,0,0,1,705,628.6040595060007) translate(0 16.799999999999997)"/><use xlink:href="#z" transform="matrix(1,0,0,1,705,628.6040595060007) translate(0 38.4)"/><use xlink:href="#u" transform="matrix(1,0,0,1,843.2798345758615,628.6040595060007) translate(0 27.6)"/><use xlink:href="#D" transform="matrix(1,0,0,1,705,681.6040595060007) translate(0 17.1)"/><use xlink:href="#E" transform="matrix(1,0,0,1,843.2798345758615,681.6040595060007) translate(0 17.1)"/><path d="M1100 545a5 5 0 0 1 5-5h249.5a5 5 0 0 1 5 5v94a5 5 0 0 1-5 5H1105a5 5 0 0 1-5-5z" fill="#fff"/><path d="M1100 580v-35a5 5 0 0 1 5-5h249.5a5 5 0 0 1 5 5v35" fill="#dedeff"/><path d="M1100 545a5 5 0 0 1 5-5h249.5a5 5 0 0 1 5 5v94a5 5 0 0 1-5 5H1105a5 5 0 0 1-5-5zM1100 580h259.5M1238.28 580v64" stroke="#282c33" fill="none"/><use xlink:href="#F" transform="matrix(1,0,0,1,1110,540) translate(0 23.6)"/><use xlink:href="#s" transform="matrix(1,0,0,1,1105,582.5) translate(0 17.1)"/><use xlink:href="#t" transform="matrix(1,0,0,1,1105,582.5) translate(18.95 17.1)"/><use xlink:href="#u" transform="matrix(1,0,0,1,1243.2798345758615,582.5) translate(0 17.1)"/><use xlink:href="#v" transform="matrix(1,0,0,1,1105,614.5) translate(0 17.1)"/><use xlink:href="#G" transform="matrix(1,0,0,1,1243.2798345758615,614.5) translate(0 17.1)"/><path d="M980 610.14h8a12 12 0 0 0 12-12V511.5a12 12 0 0 1 12-12h205.75a12 12 0 0 1 12 12v8M960.22 610.14h20m-20 10l20-10m-20-10l20 10m0 10v-20M1229.75 539.5v-20m10 0h-20" stroke="#3a414a" fill="none"/><path d="M1089.75 65a5 5 0 0 1 5-5h249.5a5 5 0 0 1 5 5v158a5 5 0 0 1-5 5h-249.5a5 5 0 0 1-5-5z" fill="#fff"/><path d="M1089.75 100V65a5 5 0 0 1 5-5h249.5a5 5 0 0 1 5 5v35" fill="#dedeff"/><path d="M1089.75 65a5 5 0 0 1 5-5h249.5a5 5 0 0 1 5 5v158a5 5 0 0 1-5 5h-249.5a5 5 0 0 1-5-5zM1089.75 100h259.5M1228.03 100v128" stroke="#282c33" fill="none"/><use xlink:href="#H" transform="matrix(1,0,0,1,1099.75,60) translate(0 23.6)"/><use xlink:href="#s" transform="matrix(1,0,0,1,1094.75,102.5) translate(0 17.1)"/><use xlink:href="#t" transform="matrix(1,0,0,1,1094.75,102.5) translate(18.95 17.1)"/><use xlink:href="#u" transform="matrix(1,0,0,1,1233.0298345758615,102.5) translate(0 17.1)"/><use xlink:href="#y" transform="matrix(1,0,0,1,1094.75,134.5) translate(0 17.1)"/><use xlink:href="#z" transform="matrix(1,0,0,1,1094.75,134.5) translate(63.900000000000006 17.1)"/><g><use xlink:href="#u" transform="matrix(1,0,0,1,1233.0298345758615,134.5) translate(0 17.1)"/></g><g><use xlink:href="#A" transform="matrix(1,0,0,1,1094.75,166.5) translate(0 17.1)"/></g><g><use xlink:href="#B" transform="matrix(1,0,0,1,1233.0298345758615,166.5) translate(0 17.1)"/></g><g><use xlink:href="#I" transform="matrix(1,0,0,1,1094.75,198.5) translate(0 17.1)"/></g><g><use xlink:href="#E" transform="matrix(1,0,0,1,1233.0298345758615,198.5) translate(0 17.1)"/></g><path d="M820 79.5v-8a12 12 0 0 1 12-12h205.25a12 12 0 0 1 12 12V136a12 12 0 0 0 12 12h8.6M820 99.5v-20m10 0h-20M1089.03 148h-20m20-10l-20 10m20 10l-20-10" stroke="#3a414a" fill="none"/><defs><path d="M232-93c-1 65-40 97-104 97C67 4 28-28 28-90v-158h33c8 89-33 224 67 224 102 0 64-133 71-224h33v155" id="J"/><path d="M135-143c-3-34-86-38-87 0 15 53 115 12 119 90S17 21 10-45l28-5c4 36 97 45 98 0-10-56-113-15-118-90-4-57 82-63 122-42 12 7 21 19 24 35" id="K"/><path d="M100-194c63 0 86 42 84 106H49c0 40 14 67 53 68 26 1 43-12 49-29l28 8c-11 28-37 45-77 45C44 4 14-33 15-96c1-61 26-98 85-98zm52 81c6-60-76-77-97-28-3 7-6 17-6 28h103" id="L"/><path d="M114-163C36-179 61-72 57 0H25l-1-190h30c1 12-1 29 2 39 6-27 23-49 58-41v29" id="M"/><g id="a"><use transform="matrix(0.05,0,0,0.05,0,0)" xlink:href="#J"/><use transform="matrix(0.05,0,0,0.05,12.950000000000001,0)" xlink:href="#K"/><use transform="matrix(0.05,0,0,0.05,21.950000000000003,0)" xlink:href="#L"/><use transform="matrix(0.05,0,0,0.05,31.950000000000003,0)" xlink:href="#M"/></g><path d="M24-231v-30h32v30H24zM24 0v-190h32V0H24" id="N"/><path d="M85-194c31 0 48 13 60 33l-1-100h32l1 261h-30c-2-10 0-23-3-31C134-8 116 4 85 4 32 4 16-35 15-94c0-66 23-100 70-100zm9 24c-40 0-46 34-46 75 0 40 6 74 45 74 42 0 51-32 51-76 0-42-9-74-50-73" id="O"/><g id="b"><use transform="matrix(0.05,0,0,0.05,0,0)" xlink:href="#N"/><use transform="matrix(0.05,0,0,0.05,3.95,0)" xlink:href="#O"/></g><path d="M87 75C49 33 22-17 22-94c0-76 28-126 65-167h31c-38 41-64 92-64 168S80 34 118 75H87" id="P"/><path d="M30-248c87 1 191-15 191 75 0 78-77 80-158 76V0H30v-248zm33 125c57 0 124 11 124-50 0-59-68-47-124-48v98" id="Q"/><path d="M194 0L95-120 63-95V0H30v-248h33v124l119-124h40L117-140 236 0h-42" id="R"/><path d="M33-261c38 41 65 92 65 168S71 34 33 75H2C39 34 66-17 66-93S39-220 2-261h31" id="S"/><g id="c"><use transform="matrix(0.05,0,0,0.05,0,0)" xlink:href="#P"/><use transform="matrix(0.05,0,0,0.05,5.95,0)" xlink:href="#Q"/><use transform="matrix(0.05,0,0,0.05,17.95,0)" xlink:href="#R"/><use transform="matrix(0.05,0,0,0.05,29.950000000000003,0)" xlink:href="#S"/></g><path d="M33 0v-248h34V0H33" id="T"/><path d="M190 0L58-211 59 0H30v-248h39L202-35l-2-213h31V0h-41" id="U"/><path d="M127-220V0H93v-220H8v-28h204v28h-85" id="V"/><g id="d"><use transform="matrix(0.05,0,0,0.05,0,0)" xlink:href="#T"/><use transform="matrix(0.05,0,0,0.05,5,0)" xlink:href="#U"/><use transform="matrix(0.05,0,0,0.05,17.950000000000003,0)" xlink:href="#V"/></g><path d="M84 4C-5 8 30-112 23-190h32v120c0 31 7 50 39 49 72-2 45-101 50-169h31l1 190h-30c-1-10 1-25-2-33-11 22-28 36-60 37" id="W"/><path d="M117-194c89-4 53 116 60 194h-32v-121c0-31-8-49-39-48C34-167 62-67 57 0H25l-1-190h30c1 10-1 24 2 32 11-22 29-35 61-36" id="X"/><path d="M141-36C126-15 110 5 73 4 37 3 15-17 15-53c-1-64 63-63 125-63 3-35-9-54-41-54-24 1-41 7-42 31l-33-3c5-37 33-52 76-52 45 0 72 20 72 64v82c-1 20 7 32 28 27v20c-31 9-61-2-59-35zM48-53c0 20 12 33 32 33 41-3 63-29 60-74-43 2-92-5-92 41" id="Y"/><path d="M210-169c-67 3-38 105-44 169h-31v-121c0-29-5-50-35-48C34-165 62-65 56 0H25l-1-190h30c1 10-1 24 2 32 10-44 99-50 107 0 11-21 27-35 58-36 85-2 47 119 55 194h-31v-121c0-29-5-49-35-48" id="Z"/><g id="e"><use transform="matrix(0.05,0,0,0.05,0,0)" xlink:href="#W"/><use transform="matrix(0.05,0,0,0.05,10,0)" xlink:href="#K"/><use transform="matrix(0.05,0,0,0.05,19,0)" xlink:href="#L"/><use transform="matrix(0.05,0,0,0.05,29,0)" xlink:href="#M"/><use transform="matrix(0.05,0,0,0.05,34.95,0)" xlink:href="#X"/><use transform="matrix(0.05,0,0,0.05,44.95,0)" xlink:href="#Y"/><use transform="matrix(0.05,0,0,0.05,54.95,0)" xlink:href="#Z"/><use transform="matrix(0.05,0,0,0.05,69.9,0)" xlink:href="#L"/></g><path d="M137 0h-34L2-248h35l83 218 83-218h36" id="aa"/><path d="M205 0l-28-72H64L36 0H1l101-248h38L239 0h-34zm-38-99l-47-123c-12 45-31 82-46 123h93" id="ab"/><path d="M233-177c-1 41-23 64-60 70L243 0h-38l-65-103H63V0H30v-248c88 3 205-21 203 71zM63-129c60-2 137 13 137-47 0-61-80-42-137-45v92" id="ac"/><path d="M212-179c-10-28-35-45-73-45-59 0-87 40-87 99 0 60 29 101 89 101 43 0 62-24 78-52l27 14C228-24 195 4 139 4 59 4 22-46 18-125c-6-104 99-153 187-111 19 9 31 26 39 46" id="ad"/><path d="M197 0v-115H63V0H30v-248h33v105h134v-105h34V0h-34" id="ae"/><path d="M54-142c48-35 137-8 131 61C196 18 31 33 14-55l32-4c7 23 22 37 52 37 35-1 51-22 54-58 4-55-73-65-99-34H22l8-134h141v27H59" id="af"/><path d="M101-251c68 0 85 55 85 127S166 4 100 4C33 4 14-52 14-124c0-73 17-127 87-127zm-1 229c47 0 54-49 54-102s-4-102-53-102c-51 0-55 48-55 102 0 53 5 102 54 102" id="ag"/><g id="f"><use transform="matrix(0.05,0,0,0.05,0,0)" xlink:href="#aa"/><use transform="matrix(0.05,0,0,0.05,10.65,0)" xlink:href="#ab"/><use transform="matrix(0.05,0,0,0.05,22.65,0)" xlink:href="#ac"/><use transform="matrix(0.05,0,0,0.05,35.6,0)" xlink:href="#ad"/><use transform="matrix(0.05,0,0,0.05,48.550000000000004,0)" xlink:href="#ae"/><use transform="matrix(0.05,0,0,0.05,61.5,0)" xlink:href="#ab"/><use transform="matrix(0.05,0,0,0.05,73.5,0)" xlink:href="#ac"/><use transform="matrix(0.05,0,0,0.05,86.45,0)" xlink:href="#P"/><use transform="matrix(0.05,0,0,0.05,92.4,0)" xlink:href="#af"/><use transform="matrix(0.05,0,0,0.05,102.4,0)" xlink:href="#ag"/><use transform="matrix(0.05,0,0,0.05,112.4,0)" xlink:href="#S"/></g><path d="M115-194c55 1 70 41 70 98S169 2 115 4C84 4 66-9 55-30l1 105H24l-1-265h31l2 30c10-21 28-34 59-34zm-8 174c40 0 45-34 45-75s-6-73-45-74c-42 0-51 32-51 76 0 43 10 73 51 73" id="ah"/><path d="M206 0h-36l-40-164L89 0H53L-1-190h32L70-26l43-164h34l41 164 42-164h31" id="ai"/><path d="M100-194c62-1 85 37 85 99 1 63-27 99-86 99S16-35 15-95c0-66 28-99 85-99zM99-20c44 1 53-31 53-75 0-43-8-75-51-75s-53 32-53 75 10 74 51 75" id="aj"/><g id="g"><use transform="matrix(0.05,0,0,0.05,0,0)" xlink:href="#ah"/><use transform="matrix(0.05,0,0,0.05,10,0)" xlink:href="#Y"/><use transform="matrix(0.05,0,0,0.05,20,0)" xlink:href="#K"/><use transform="matrix(0.05,0,0,0.05,29,0)" xlink:href="#K"/><use transform="matrix(0.05,0,0,0.05,38,0)" xlink:href="#ai"/><use transform="matrix(0.05,0,0,0.05,50.95,0)" xlink:href="#aj"/><use transform="matrix(0.05,0,0,0.05,60.95,0)" xlink:href="#M"/><use transform="matrix(0.05,0,0,0.05,66.9,0)" xlink:href="#O"/></g><g id="h"><use transform="matrix(0.05432111111111112,0,0,0.05432111111111112,0,0)" xlink:href="#aa"/><use transform="matrix(0.05432111111111112,0,0,0.05432111111111112,11.570396666666667,0)" xlink:href="#ab"/><use transform="matrix(0.05432111111111112,0,0,0.05432111111111112,24.607463333333335,0)" xlink:href="#ac"/><use transform="matrix(0.05432111111111112,0,0,0.05432111111111112,38.676631111111114,0)" xlink:href="#ad"/><use transform="matrix(0.05432111111111112,0,0,0.05432111111111112,52.74579888888889,0)" xlink:href="#ae"/><use transform="matrix(0.05432111111111112,0,0,0.05432111111111112,66.81496666666668,0)" xlink:href="#ab"/><use transform="matrix(0.05432111111111112,0,0,0.05432111111111112,79.85203333333334,0)" xlink:href="#ac"/></g><path d="M101-251c82-7 93 87 43 132L82-64C71-53 59-42 53-27h129V0H18c2-99 128-94 128-182 0-28-16-43-45-43s-46 15-49 41l-32-3c6-41 34-60 81-64" id="ak"/><g id="i"><use transform="matrix(0.05432111111111112,0,0,0.05432111111111112,0,0)" xlink:href="#P"/><use transform="matrix(0.05432111111111112,0,0,0.05432111111111112,6.464212222222223,0)" xlink:href="#ak"/><use transform="matrix(0.05432111111111112,0,0,0.05432111111111112,17.328434444444447,0)" xlink:href="#af"/><use transform="matrix(0.05432111111111112,0,0,0.05432111111111112,28.19265666666667,0)" xlink:href="#af"/><use transform="matrix(0.05432111111111112,0,0,0.05432111111111112,39.056878888888896,0)" xlink:href="#S"/></g><path d="M101-234c-31-9-42 10-38 44h38v23H63V0H32v-167H5v-23h27c-7-52 17-82 69-68v24" id="al"/><path d="M59-47c-2 24 18 29 38 22v24C64 9 27 4 27-40v-127H5v-23h24l9-43h21v43h35v23H59v120" id="am"/><path d="M-5 72V49h209v23H-5" id="an"/><path d="M80-196l47-18 7 23-49 13 32 44-20 13-27-46-27 45-21-12 33-44-49-13 8-23 47 19-2-53h23" id="ao"/><g id="j"><use transform="matrix(0.05,0,0,0.05,0,0)" xlink:href="#al"/><use transform="matrix(0.05,0,0,0.05,5,0)" xlink:href="#N"/><use transform="matrix(0.05,0,0,0.05,8.95,0)" xlink:href="#M"/><use transform="matrix(0.05,0,0,0.05,14.899999999999999,0)" xlink:href="#K"/><use transform="matrix(0.05,0,0,0.05,23.9,0)" xlink:href="#am"/><use transform="matrix(0.05,0,0,0.05,28.899999999999995,0)" xlink:href="#an"/><use transform="matrix(0.05,0,0,0.05,38.9,0)" xlink:href="#X"/><use transform="matrix(0.05,0,0,0.05,48.9,0)" xlink:href="#Y"/><use transform="matrix(0.05,0,0,0.05,58.900000000000006,0)" xlink:href="#Z"/><use transform="matrix(0.05,0,0,0.05,73.85,0)" xlink:href="#L"/><use transform="matrix(0.05,0,0,0.05,83.85,0)" xlink:href="#ao"/></g><path d="M24 0v-261h32V0H24" id="ap"/><g id="k"><use transform="matrix(0.05,0,0,0.05,0,0)" xlink:href="#ap"/><use transform="matrix(0.05,0,0,0.05,3.95,0)" xlink:href="#Y"/><use transform="matrix(0.05,0,0,0.05,13.949999999999998,0)" xlink:href="#K"/><use transform="matrix(0.05,0,0,0.05,22.95,0)" xlink:href="#am"/><use transform="matrix(0.05,0,0,0.05,27.950000000000003,0)" xlink:href="#an"/><use transform="matrix(0.05,0,0,0.05,37.95,0)" xlink:href="#X"/><use transform="matrix(0.05,0,0,0.05,47.95,0)" xlink:href="#Y"/><use transform="matrix(0.05,0,0,0.05,57.95,0)" xlink:href="#Z"/><use transform="matrix(0.05,0,0,0.05,72.9,0)" xlink:href="#L"/><use transform="matrix(0.05,0,0,0.05,82.9,0)" xlink:href="#ao"/></g><g id="l"><use transform="matrix(0.05,0,0,0.05,0,0)" xlink:href="#L"/><use transform="matrix(0.05,0,0,0.05,10,0)" xlink:href="#Z"/><use transform="matrix(0.05,0,0,0.05,24.950000000000003,0)" xlink:href="#Y"/><use transform="matrix(0.05,0,0,0.05,34.95,0)" xlink:href="#N"/><use transform="matrix(0.05,0,0,0.05,38.900000000000006,0)" xlink:href="#ap"/></g><path d="M27 0v-27h64v-190l-56 39v-29l58-41h29v221h61V0H27" id="aq"/><g id="m"><use transform="matrix(0.05,0,0,0.05,0,0)" xlink:href="#aa"/><use transform="matrix(0.05,0,0,0.05,10.65,0)" xlink:href="#ab"/><use transform="matrix(0.05,0,0,0.05,22.65,0)" xlink:href="#ac"/><use transform="matrix(0.05,0,0,0.05,35.6,0)" xlink:href="#ad"/><use transform="matrix(0.05,0,0,0.05,48.550000000000004,0)" xlink:href="#ae"/><use transform="matrix(0.05,0,0,0.05,61.5,0)" xlink:href="#ab"/><use transform="matrix(0.05,0,0,0.05,73.5,0)" xlink:href="#ac"/><use transform="matrix(0.05,0,0,0.05,86.45,0)" xlink:href="#P"/><use transform="matrix(0.05,0,0,0.05,92.4,0)" xlink:href="#aq"/><use transform="matrix(0.05,0,0,0.05,102.4,0)" xlink:href="#ag"/><use transform="matrix(0.05,0,0,0.05,112.4,0)" xlink:href="#ag"/><use transform="matrix(0.05,0,0,0.05,122.4,0)" xlink:href="#S"/></g><path d="M106-169C34-169 62-67 57 0H25v-261h32l-1 103c12-21 28-36 61-36 89 0 53 116 60 194h-32v-121c2-32-8-49-39-48" id="ar"/><path d="M115-194c53 0 69 39 70 98 0 66-23 100-70 100C84 3 66-7 56-30L54 0H23l1-261h32v101c10-23 28-34 59-34zm-8 174c40 0 45-34 45-75 0-40-5-75-45-74-42 0-51 32-51 76 0 43 10 73 51 73" id="as"/><g id="n"><use transform="matrix(0.05,0,0,0.05,0,0)" xlink:href="#ah"/><use transform="matrix(0.05,0,0,0.05,10,0)" xlink:href="#ar"/><use transform="matrix(0.05,0,0,0.05,20,0)" xlink:href="#aj"/><use transform="matrix(0.05,0,0,0.05,30,0)" xlink:href="#X"/><use transform="matrix(0.05,0,0,0.05,40,0)" xlink:href="#L"/><use transform="matrix(0.05,0,0,0.05,50,0)" xlink:href="#an"/><use transform="matrix(0.05,0,0,0.05,60,0)" xlink:href="#X"/><use transform="matrix(0.05,0,0,0.05,70,0)" xlink:href="#W"/><use transform="matrix(0.05,0,0,0.05,80,0)" xlink:href="#Z"/><use transform="matrix(0.05,0,0,0.05,94.95,0)" xlink:href="#as"/><use transform="matrix(0.05,0,0,0.05,104.95,0)" xlink:href="#L"/><use transform="matrix(0.05,0,0,0.05,114.95,0)" xlink:href="#M"/></g><g id="o"><use transform="matrix(0.05,0,0,0.05,0,0)" xlink:href="#aa"/><use transform="matrix(0.05,0,0,0.05,10.65,0)" xlink:href="#ab"/><use transform="matrix(0.05,0,0,0.05,22.65,0)" xlink:href="#ac"/><use transform="matrix(0.05,0,0,0.05,35.6,0)" xlink:href="#ad"/><use transform="matrix(0.05,0,0,0.05,48.550000000000004,0)" xlink:href="#ae"/><use transform="matrix(0.05,0,0,0.05,61.5,0)" xlink:href="#ab"/><use transform="matrix(0.05,0,0,0.05,73.5,0)" xlink:href="#ac"/><use transform="matrix(0.05,0,0,0.05,86.45,0)" xlink:href="#P"/><use transform="matrix(0.05,0,0,0.05,92.4,0)" xlink:href="#aq"/><use transform="matrix(0.05,0,0,0.05,102.4,0)" xlink:href="#af"/><use transform="matrix(0.05,0,0,0.05,112.4,0)" xlink:href="#S"/></g><g id="p"><use transform="matrix(0.05,0,0,0.05,0,0)" xlink:href="#Y"/><use transform="matrix(0.05,0,0,0.05,10,0)" xlink:href="#O"/><use transform="matrix(0.05,0,0,0.05,20,0)" xlink:href="#Z"/><use transform="matrix(0.05,0,0,0.05,34.95,0)" xlink:href="#N"/><use transform="matrix(0.05,0,0,0.05,38.900000000000006,0)" xlink:href="#X"/><use transform="matrix(0.05,0,0,0.05,48.900000000000006,0)" xlink:href="#an"/><use transform="matrix(0.05,0,0,0.05,58.900000000000006,0)" xlink:href="#N"/><use transform="matrix(0.05,0,0,0.05,62.85,0)" xlink:href="#O"/></g><path d="M63-220v92h138v28H63V0H30v-248h175v28H63" id="at"/><g id="q"><use transform="matrix(0.05,0,0,0.05,0,0)" xlink:href="#P"/><use transform="matrix(0.05,0,0,0.05,5.95,0)" xlink:href="#at"/><use transform="matrix(0.05,0,0,0.05,16.900000000000002,0)" xlink:href="#R"/><use transform="matrix(0.05,0,0,0.05,28.900000000000002,0)" xlink:href="#S"/></g><g id="r"><use transform="matrix(0.05,0,0,0.05,0,0)" xlink:href="#ab"/><use transform="matrix(0.05,0,0,0.05,12,0)" xlink:href="#O"/><use transform="matrix(0.05,0,0,0.05,22,0)" xlink:href="#Z"/><use transform="matrix(0.05,0,0,0.05,36.95,0)" xlink:href="#N"/><use transform="matrix(0.05,0,0,0.05,40.900000000000006,0)" xlink:href="#X"/></g><g id="s"><use transform="matrix(0.05,0,0,0.05,0,0)" xlink:href="#N"/><use transform="matrix(0.05,0,0,0.05,3.95,0)" xlink:href="#O"/></g><g id="t"><use transform="matrix(0.05,0,0,0.05,0,0)" xlink:href="#P"/><use transform="matrix(0.05,0,0,0.05,5.95,0)" xlink:href="#Q"/><use transform="matrix(0.05,0,0,0.05,17.95,0)" xlink:href="#R"/><use transform="matrix(0.05,0,0,0.05,29.950000000000003,0)" xlink:href="#S"/></g><g id="u"><use transform="matrix(0.05,0,0,0.05,0,0)" xlink:href="#T"/><use transform="matrix(0.05,0,0,0.05,5,0)" xlink:href="#U"/><use transform="matrix(0.05,0,0,0.05,17.950000000000003,0)" xlink:href="#V"/></g><g id="v"><use transform="matrix(0.05,0,0,0.05,0,0)" xlink:href="#X"/><use transform="matrix(0.05,0,0,0.05,10,0)" xlink:href="#Y"/><use transform="matrix(0.05,0,0,0.05,20,0)" xlink:href="#Z"/><use transform="matrix(0.05,0,0,0.05,34.95,0)" xlink:href="#L"/></g><path d="M179-190L93 31C79 59 56 82 12 73V49c39 6 53-20 64-50L1-190h34L92-34l54-156h33" id="au"/><g id="w"><use transform="matrix(0.05,0,0,0.05,0,0)" xlink:href="#V"/><use transform="matrix(0.05,0,0,0.05,9.950000000000001,0)" xlink:href="#au"/><use transform="matrix(0.05,0,0,0.05,18.950000000000003,0)" xlink:href="#ah"/><use transform="matrix(0.05,0,0,0.05,28.950000000000003,0)" xlink:href="#L"/></g><g id="x"><use transform="matrix(0.05,0,0,0.05,0,0)" xlink:href="#ac"/><use transform="matrix(0.05,0,0,0.05,12.950000000000001,0)" xlink:href="#L"/><use transform="matrix(0.05,0,0,0.05,22.950000000000003,0)" xlink:href="#ah"/><use transform="matrix(0.05,0,0,0.05,32.95,0)" xlink:href="#aj"/><use transform="matrix(0.05,0,0,0.05,42.95,0)" xlink:href="#M"/><use transform="matrix(0.05,0,0,0.05,48.900000000000006,0)" xlink:href="#am"/><use transform="matrix(0.05,0,0,0.05,53.900000000000006,0)" xlink:href="#K"/></g><g id="y"><use transform="matrix(0.05,0,0,0.05,0,0)" xlink:href="#W"/><use transform="matrix(0.05,0,0,0.05,10,0)" xlink:href="#K"/><use transform="matrix(0.05,0,0,0.05,19,0)" xlink:href="#L"/><use transform="matrix(0.05,0,0,0.05,29,0)" xlink:href="#M"/><use transform="matrix(0.05,0,0,0.05,34.95,0)" xlink:href="#an"/><use transform="matrix(0.05,0,0,0.05,44.95,0)" xlink:href="#N"/><use transform="matrix(0.05,0,0,0.05,48.900000000000006,0)" xlink:href="#O"/></g><g id="z"><use transform="matrix(0.05,0,0,0.05,0,0)" xlink:href="#P"/><use transform="matrix(0.05,0,0,0.05,5.95,0)" xlink:href="#at"/><use transform="matrix(0.05,0,0,0.05,16.900000000000002,0)" xlink:href="#R"/><use transform="matrix(0.05,0,0,0.05,28.900000000000002,0)" xlink:href="#S"/></g><g id="A"><use transform="matrix(0.05,0,0,0.05,0,0)" xlink:href="#O"/><use transform="matrix(0.05,0,0,0.05,10,0)" xlink:href="#Y"/><use transform="matrix(0.05,0,0,0.05,20,0)" xlink:href="#am"/><use transform="matrix(0.05,0,0,0.05,25,0)" xlink:href="#L"/></g><path d="M30-248c118-7 216 8 213 122C240-48 200 0 122 0H30v-248zM63-27c89 8 146-16 146-99s-60-101-146-95v194" id="av"/><path d="M30 0v-248h187v28H63v79h144v27H63v87h162V0H30" id="aw"/><path d="M240 0l2-218c-23 76-54 145-80 218h-23L58-218 59 0H30v-248h44l77 211c21-75 51-140 76-211h43V0h-30" id="ax"/><g id="B"><use transform="matrix(0.05,0,0,0.05,0,0)" xlink:href="#av"/><use transform="matrix(0.05,0,0,0.05,12.950000000000001,0)" xlink:href="#ab"/><use transform="matrix(0.05,0,0,0.05,23.6,0)" xlink:href="#V"/><use transform="matrix(0.05,0,0,0.05,34.550000000000004,0)" xlink:href="#aw"/><use transform="matrix(0.05,0,0,0.05,46.550000000000004,0)" xlink:href="#V"/><use transform="matrix(0.05,0,0,0.05,57.5,0)" xlink:href="#T"/><use transform="matrix(0.05,0,0,0.05,62.5,0)" xlink:href="#ax"/><use transform="matrix(0.05,0,0,0.05,77.45,0)" xlink:href="#aw"/></g><path d="M96-169c-40 0-48 33-48 73s9 75 48 75c24 0 41-14 43-38l32 2c-6 37-31 61-74 61-59 0-76-41-82-99-10-93 101-131 147-64 4 7 5 14 7 22l-32 3c-4-21-16-35-41-35" id="ay"/><path d="M177-190C167-65 218 103 67 71c-23-6-38-20-44-43l32-5c15 47 100 32 89-28v-30C133-14 115 1 83 1 29 1 15-40 15-95c0-56 16-97 71-98 29-1 48 16 59 35 1-10 0-23 2-32h30zM94-22c36 0 50-32 50-73 0-42-14-75-50-75-39 0-46 34-46 75s6 73 46 73" id="az"/><g id="C"><use transform="matrix(0.05,0,0,0.05,0,0)" xlink:href="#M"/><use transform="matrix(0.05,0,0,0.05,5.95,0)" xlink:href="#L"/><use transform="matrix(0.05,0,0,0.05,15.949999999999998,0)" xlink:href="#ah"/><use transform="matrix(0.05,0,0,0.05,25.950000000000003,0)" xlink:href="#aj"/><use transform="matrix(0.05,0,0,0.05,35.95,0)" xlink:href="#M"/><use transform="matrix(0.05,0,0,0.05,41.900000000000006,0)" xlink:href="#am"/><use transform="matrix(0.05,0,0,0.05,46.900000000000006,0)" xlink:href="#an"/><use transform="matrix(0.05,0,0,0.05,56.900000000000006,0)" xlink:href="#ay"/><use transform="matrix(0.05,0,0,0.05,65.9,0)" xlink:href="#Y"/><use transform="matrix(0.05,0,0,0.05,75.9,0)" xlink:href="#am"/><use transform="matrix(0.05,0,0,0.05,80.9,0)" xlink:href="#L"/><use transform="matrix(0.05,0,0,0.05,90.9,0)" xlink:href="#az"/><use transform="matrix(0.05,0,0,0.05,100.9,0)" xlink:href="#aj"/><use transform="matrix(0.05,0,0,0.05,110.9,0)" xlink:href="#M"/><use transform="matrix(0.05,0,0,0.05,116.85000000000001,0)" xlink:href="#au"/></g><g id="D"><use transform="matrix(0.05,0,0,0.05,0,0)" xlink:href="#M"/><use transform="matrix(0.05,0,0,0.05,5.95,0)" xlink:href="#L"/><use transform="matrix(0.05,0,0,0.05,15.949999999999998,0)" xlink:href="#ah"/><use transform="matrix(0.05,0,0,0.05,25.950000000000003,0)" xlink:href="#aj"/><use transform="matrix(0.05,0,0,0.05,35.95,0)" xlink:href="#M"/><use transform="matrix(0.05,0,0,0.05,41.900000000000006,0)" xlink:href="#am"/></g><path d="M195 0l-74-108L45 0H8l94-129-87-119h37l69 98 67-98h37l-84 118L233 0h-38" id="aA"/><g id="E"><use transform="matrix(0.05,0,0,0.05,0,0)" xlink:href="#V"/><use transform="matrix(0.05,0,0,0.05,10.950000000000001,0)" xlink:href="#aw"/><use transform="matrix(0.05,0,0,0.05,22.950000000000003,0)" xlink:href="#aA"/><use transform="matrix(0.05,0,0,0.05,34.95,0)" xlink:href="#V"/></g><g id="F"><use transform="matrix(0.05,0,0,0.05,0,0)" xlink:href="#ac"/><use transform="matrix(0.05,0,0,0.05,12.950000000000001,0)" xlink:href="#L"/><use transform="matrix(0.05,0,0,0.05,22.950000000000003,0)" xlink:href="#ah"/><use transform="matrix(0.05,0,0,0.05,32.95,0)" xlink:href="#aj"/><use transform="matrix(0.05,0,0,0.05,42.95,0)" xlink:href="#M"/><use transform="matrix(0.05,0,0,0.05,48.900000000000006,0)" xlink:href="#am"/><use transform="matrix(0.05,0,0,0.05,53.900000000000006,0)" xlink:href="#ad"/><use transform="matrix(0.05,0,0,0.05,66.85000000000001,0)" xlink:href="#Y"/><use transform="matrix(0.05,0,0,0.05,76.85000000000001,0)" xlink:href="#am"/><use transform="matrix(0.05,0,0,0.05,81.85000000000001,0)" xlink:href="#L"/><use transform="matrix(0.05,0,0,0.05,91.85000000000001,0)" xlink:href="#az"/><use transform="matrix(0.05,0,0,0.05,101.85000000000001,0)" xlink:href="#aj"/><use transform="matrix(0.05,0,0,0.05,111.85000000000001,0)" xlink:href="#M"/><use transform="matrix(0.05,0,0,0.05,117.80000000000001,0)" xlink:href="#au"/></g><g id="G"><use transform="matrix(0.05,0,0,0.05,0,0)" xlink:href="#aa"/><use transform="matrix(0.05,0,0,0.05,10.65,0)" xlink:href="#ab"/><use transform="matrix(0.05,0,0,0.05,22.65,0)" xlink:href="#ac"/><use transform="matrix(0.05,0,0,0.05,35.6,0)" xlink:href="#ad"/><use transform="matrix(0.05,0,0,0.05,48.550000000000004,0)" xlink:href="#ae"/><use transform="matrix(0.05,0,0,0.05,61.5,0)" xlink:href="#ab"/><use transform="matrix(0.05,0,0,0.05,73.5,0)" xlink:href="#ac"/><use transform="matrix(0.05,0,0,0.05,86.45,0)" xlink:href="#P"/><use transform="matrix(0.05,0,0,0.05,92.4,0)" xlink:href="#af"/><use transform="matrix(0.05,0,0,0.05,102.4,0)" xlink:href="#ag"/><use transform="matrix(0.05,0,0,0.05,112.4,0)" xlink:href="#S"/></g><path d="M143 0L79-87 56-68V0H24v-261h32v163l83-92h37l-77 82L181 0h-38" id="aB"/><g id="H"><use transform="matrix(0.05,0,0,0.05,0,0)" xlink:href="#at"/><use transform="matrix(0.05,0,0,0.05,10.950000000000001,0)" xlink:href="#L"/><use transform="matrix(0.05,0,0,0.05,20.950000000000003,0)" xlink:href="#L"/><use transform="matrix(0.05,0,0,0.05,30.950000000000003,0)" xlink:href="#O"/><use transform="matrix(0.05,0,0,0.05,40.95,0)" xlink:href="#as"/><use transform="matrix(0.05,0,0,0.05,50.95,0)" xlink:href="#Y"/><use transform="matrix(0.05,0,0,0.05,60.95,0)" xlink:href="#ay"/><use transform="matrix(0.05,0,0,0.05,69.95,0)" xlink:href="#aB"/></g><g id="I"><use transform="matrix(0.05,0,0,0.05,0,0)" xlink:href="#M"/><use transform="matrix(0.05,0,0,0.05,5.95,0)" xlink:href="#L"/><use transform="matrix(0.05,0,0,0.05,15.949999999999998,0)" xlink:href="#K"/><use transform="matrix(0.05,0,0,0.05,24.95,0)" xlink:href="#ah"/><use transform="matrix(0.05,0,0,0.05,34.95,0)" xlink:href="#aj"/><use transform="matrix(0.05,0,0,0.05,44.95,0)" xlink:href="#X"/><use transform="matrix(0.05,0,0,0.05,54.95,0)" xlink:href="#K"/><use transform="matrix(0.05,0,0,0.05,63.95,0)" xlink:href="#L"/></g></defs></g></svg>