<svg xmlns="http://www.w3.org/2000/svg" xmlns:xlink="http://www.w3.org/1999/xlink" xmlns:lucid="lucid" width="681.5" height="421"><g transform="translate(-539.0000274193548 -299.5)" lucid:page-tab-id="0_0"><path d="M500 0h1000v1000H500z" fill="#fff"/><path d="M879.9 480a10.1 10.1 0 0 0 10.1-10.1V365.5a9.5 9.5 0 0 1 9.5-9.5M860.72 480h20m-20 10l20-10m-20-10l20 10M919.5 356h-20m0-10v20M559.5 356h-8a12 12 0 0 0-12 12v228a12 12 0 0 0 12 12h8M579.5 356h-20m0-10v20M579.28 608h-20m20-10l-20 10m20 10l-20-10m0-10v20" stroke="#333" fill="none"/><path d="M580 305a5 5 0 0 1 5-5h270a5 5 0 0 1 5 5v186a5 5 0 0 1-5 5H585a5 5 0 0 1-5-5z" fill="#fff"/><path d="M580 340v-35a5 5 0 0 1 5-5h270a5 5 0 0 1 5 5v35" fill="#dedeff"/><path d="M580 305a5 5 0 0 1 5-5h270a5 5 0 0 1 5 5v186a5 5 0 0 1-5 5H585a5 5 0 0 1-5-5zM580 340h280M720 340v156" stroke="#282c33" fill="none"/><use xlink:href="#a" transform="matrix(1,0,0,1,590,300) translate(0 23.6)"/><use xlink:href="#b" transform="matrix(1,0,0,1,585,342.5) translate(0 17.1)"/><use xlink:href="#c" transform="matrix(1,0,0,1,585,342.5) translate(60.85000000000001 17.1)"/><use xlink:href="#d" transform="matrix(1,0,0,1,725,342.5) translate(0 17.1)"/><use xlink:href="#e" transform="matrix(1,0,0,1,585,374.5) translate(0 17.1)"/><use xlink:href="#f" transform="matrix(1,0,0,1,725,374.5) translate(0 17.1)"/><use xlink:href="#g" transform="matrix(1,0,0,1,585,406.5) translate(0 31.1)"/><use xlink:href="#h" transform="matrix(1,0,0,1,725,406.5) translate(0 17.917786666666665)"/><use xlink:href="#i" transform="matrix(1,0,0,1,725,406.5) translate(0 44.904453333333336)"/><use xlink:href="#j" transform="matrix(1,0,0,1,585,466.5) translate(0 17.1)"/><use xlink:href="#k" transform="matrix(1,0,0,1,585,466.5) translate(59.85000000000001 17.1)"/><use xlink:href="#l" transform="matrix(1,0,0,1,725,466.5) translate(0 17.1)"/><path d="M920 305a5 5 0 0 1 5-5h270a5 5 0 0 1 5 5v94a5 5 0 0 1-5 5H925a5 5 0 0 1-5-5z" fill="#fff"/><path d="M920 340v-35a5 5 0 0 1 5-5h270a5 5 0 0 1 5 5v35" fill="#dedeff"/><path d="M920 305a5 5 0 0 1 5-5h270a5 5 0 0 1 5 5v94a5 5 0 0 1-5 5H925a5 5 0 0 1-5-5zM920 340h280M1060 340v64" stroke="#282c33" fill="none"/><use xlink:href="#m" transform="matrix(1,0,0,1,930,300.00002262435964) translate(0 23.6)"/><use xlink:href="#j" transform="matrix(1,0,0,1,925,342.50002262435964) translate(0 17.1)"/><use xlink:href="#c" transform="matrix(1,0,0,1,925,342.50002262435964) translate(59.85000000000001 17.1)"/><use xlink:href="#d" transform="matrix(1,0,0,1,1065,342.50002262435964) translate(0 17.1)"/><use xlink:href="#n" transform="matrix(1,0,0,1,925,374.50002262435964) translate(0 17.1)"/><use xlink:href="#o" transform="matrix(1,0,0,1,1065,374.50002262435964) translate(0 17.1)"/><path d="M580 525a5 5 0 0 1 5-5h290a5 5 0 0 1 5 5v190a5 5 0 0 1-5 5H585a5 5 0 0 1-5-5z" fill="#fff"/><path d="M580 560v-35a5 5 0 0 1 5-5h290a5 5 0 0 1 5 5v35" fill="#dedeff"/><path d="M580 525a5 5 0 0 1 5-5h290a5 5 0 0 1 5 5v190a5 5 0 0 1-5 5H585a5 5 0 0 1-5-5zM580 560h300M760 560v160" stroke="#282c33" fill="none"/><use xlink:href="#p" transform="matrix(1,0,0,1,590,520) translate(0 23.6)"/><use xlink:href="#q" transform="matrix(1,0,0,1,585,562.5) translate(0 17.1)"/><use xlink:href="#c" transform="matrix(1,0,0,1,585,562.5) translate(76.85000000000001 17.1)"/><use xlink:href="#l" transform="matrix(1,0,0,1,765,562.5) translate(0 17.1)"/><use xlink:href="#b" transform="matrix(1,0,0,1,585,594.5) translate(0 17.1)"/><use xlink:href="#k" transform="matrix(1,0,0,1,585,594.5) translate(60.85000000000001 17.1)"/><use xlink:href="#l" transform="matrix(1,0,0,1,765,594.5) translate(0 17.1)"/><use xlink:href="#r" transform="matrix(1,0,0,1,585,626.5) translate(0 17.1)"/><use xlink:href="#k" transform="matrix(1,0,0,1,585,626.5) translate(95.85000000000001 17.1)"/><use xlink:href="#l" transform="matrix(1,0,0,1,765,626.5) translate(0 17.1)"/><use xlink:href="#s" transform="matrix(1,0,0,1,585,658.5) translate(0 17.1)"/><use xlink:href="#t" transform="matrix(1,0,0,1,765,658.5) translate(0 17.1)"/><use xlink:href="#u" transform="matrix(1,0,0,1,585,690.5) translate(0 17.1)"/><use xlink:href="#v" transform="matrix(1,0,0,1,765,690.5) translate(0 17.1)"/><path d="M940 525a5 5 0 0 1 5-5h270a5 5 0 0 1 5 5v179a5 5 0 0 1-5 5H945a5 5 0 0 1-5-5z" fill="#fff"/><path d="M940 560v-35a5 5 0 0 1 5-5h270a5 5 0 0 1 5 5v35" fill="#dedeff"/><path d="M940 525a5 5 0 0 1 5-5h270a5 5 0 0 1 5 5v179a5 5 0 0 1-5 5H945a5 5 0 0 1-5-5zM940 560h280M1078.28 560v149" stroke="#282c33" fill="none"/><use xlink:href="#w" transform="matrix(1,0,0,1,950,520) translate(0 23.6)"/><use xlink:href="#x" transform="matrix(1,0,0,1,945,562.5) translate(0 16.799999999999997)"/><use xlink:href="#c" transform="matrix(1,0,0,1,945,562.5) translate(0 38.4)"/><use xlink:href="#d" transform="matrix(1,0,0,1,1083.2798345758615,562.5) translate(0 27.6)"/><use xlink:href="#n" transform="matrix(1,0,0,1,945,615.5) translate(0 17.1)"/><use xlink:href="#f" transform="matrix(1,0,0,1,1083.2798345758615,615.5) translate(0 17.1)"/><g><use xlink:href="#y" transform="matrix(1,0,0,1,945,647.5) translate(0 17.1)"/></g><g><use xlink:href="#v" transform="matrix(1,0,0,1,1083.2798345758615,647.5) translate(0 17.1)"/></g><g><use xlink:href="#z" transform="matrix(1,0,0,1,945,679.5) translate(0 17.1)"/></g><g><use xlink:href="#v" transform="matrix(1,0,0,1,1083.2798345758615,679.5) translate(0 17.1)"/></g><path d="M900.5 640a9.5 9.5 0 0 0 9.5-9.5v-39.93a9.5 9.5 0 0 1 9.5-9.5M880.72 640h20m-20 10l20-10m-20-10l20 10m0 10v-20M939.5 581.07h-20m0-10v20" stroke="#3a414a" fill="none"/><defs><path d="M232-93c-1 65-40 97-104 97C67 4 28-28 28-90v-158h33c8 89-33 224 67 224 102 0 64-133 71-224h33v155" id="A"/><path d="M135-143c-3-34-86-38-87 0 15 53 115 12 119 90S17 21 10-45l28-5c4 36 97 45 98 0-10-56-113-15-118-90-4-57 82-63 122-42 12 7 21 19 24 35" id="B"/><path d="M100-194c63 0 86 42 84 106H49c0 40 14 67 53 68 26 1 43-12 49-29l28 8c-11 28-37 45-77 45C44 4 14-33 15-96c1-61 26-98 85-98zm52 81c6-60-76-77-97-28-3 7-6 17-6 28h103" id="C"/><path d="M114-163C36-179 61-72 57 0H25l-1-190h30c1 12-1 29 2 39 6-27 23-49 58-41v29" id="D"/><path d="M205 0l-28-72H64L36 0H1l101-248h38L239 0h-34zm-38-99l-47-123c-12 45-31 82-46 123h93" id="E"/><path d="M96-169c-40 0-48 33-48 73s9 75 48 75c24 0 41-14 43-38l32 2c-6 37-31 61-74 61-59 0-76-41-82-99-10-93 101-131 147-64 4 7 5 14 7 22l-32 3c-4-21-16-35-41-35" id="F"/><path d="M100-194c62-1 85 37 85 99 1 63-27 99-86 99S16-35 15-95c0-66 28-99 85-99zM99-20c44 1 53-31 53-75 0-43-8-75-51-75s-53 32-53 75 10 74 51 75" id="G"/><path d="M84 4C-5 8 30-112 23-190h32v120c0 31 7 50 39 49 72-2 45-101 50-169h31l1 190h-30c-1-10 1-25-2-33-11 22-28 36-60 37" id="H"/><path d="M117-194c89-4 53 116 60 194h-32v-121c0-31-8-49-39-48C34-167 62-67 57 0H25l-1-190h30c1 10-1 24 2 32 11-22 29-35 61-36" id="I"/><path d="M59-47c-2 24 18 29 38 22v24C64 9 27 4 27-40v-127H5v-23h24l9-43h21v43h35v23H59v120" id="J"/><g id="a"><use transform="matrix(0.05,0,0,0.05,0,0)" xlink:href="#A"/><use transform="matrix(0.05,0,0,0.05,12.950000000000001,0)" xlink:href="#B"/><use transform="matrix(0.05,0,0,0.05,21.950000000000003,0)" xlink:href="#C"/><use transform="matrix(0.05,0,0,0.05,31.950000000000003,0)" xlink:href="#D"/><use transform="matrix(0.05,0,0,0.05,37.900000000000006,0)" xlink:href="#E"/><use transform="matrix(0.05,0,0,0.05,49.900000000000006,0)" xlink:href="#F"/><use transform="matrix(0.05,0,0,0.05,58.900000000000006,0)" xlink:href="#F"/><use transform="matrix(0.05,0,0,0.05,67.9,0)" xlink:href="#G"/><use transform="matrix(0.05,0,0,0.05,77.9,0)" xlink:href="#H"/><use transform="matrix(0.05,0,0,0.05,87.9,0)" xlink:href="#I"/><use transform="matrix(0.05,0,0,0.05,97.9,0)" xlink:href="#J"/><use transform="matrix(0.05,0,0,0.05,102.9,0)" xlink:href="#B"/></g><path d="M33 0v-248h34V0H33" id="K"/><path d="M30-248c118-7 216 8 213 122C240-48 200 0 122 0H30v-248zM63-27c89 8 146-16 146-99s-60-101-146-95v194" id="L"/><g id="b"><use transform="matrix(0.05,0,0,0.05,0,0)" xlink:href="#A"/><use transform="matrix(0.05,0,0,0.05,12.950000000000001,0)" xlink:href="#B"/><use transform="matrix(0.05,0,0,0.05,21.950000000000003,0)" xlink:href="#C"/><use transform="matrix(0.05,0,0,0.05,31.950000000000003,0)" xlink:href="#D"/><use transform="matrix(0.05,0,0,0.05,37.900000000000006,0)" xlink:href="#K"/><use transform="matrix(0.05,0,0,0.05,42.900000000000006,0)" xlink:href="#L"/></g><path d="M87 75C49 33 22-17 22-94c0-76 28-126 65-167h31c-38 41-64 92-64 168S80 34 118 75H87" id="M"/><path d="M30-248c87 1 191-15 191 75 0 78-77 80-158 76V0H30v-248zm33 125c57 0 124 11 124-50 0-59-68-47-124-48v98" id="N"/><path d="M194 0L95-120 63-95V0H30v-248h33v124l119-124h40L117-140 236 0h-42" id="O"/><path d="M33-261c38 41 65 92 65 168S71 34 33 75H2C39 34 66-17 66-93S39-220 2-261h31" id="P"/><g id="c"><use transform="matrix(0.05,0,0,0.05,0,0)" xlink:href="#M"/><use transform="matrix(0.05,0,0,0.05,5.95,0)" xlink:href="#N"/><use transform="matrix(0.05,0,0,0.05,17.95,0)" xlink:href="#O"/><use transform="matrix(0.05,0,0,0.05,29.950000000000003,0)" xlink:href="#P"/></g><path d="M190 0L58-211 59 0H30v-248h39L202-35l-2-213h31V0h-41" id="Q"/><path d="M127-220V0H93v-220H8v-28h204v28h-85" id="R"/><g id="d"><use transform="matrix(0.05,0,0,0.05,0,0)" xlink:href="#K"/><use transform="matrix(0.05,0,0,0.05,5,0)" xlink:href="#Q"/><use transform="matrix(0.05,0,0,0.05,17.950000000000003,0)" xlink:href="#R"/></g><path d="M30 0v-248h187v28H63v79h144v27H63v87h162V0H30" id="S"/><path d="M210-169c-67 3-38 105-44 169h-31v-121c0-29-5-50-35-48C34-165 62-65 56 0H25l-1-190h30c1 10-1 24 2 32 10-44 99-50 107 0 11-21 27-35 58-36 85-2 47 119 55 194h-31v-121c0-29-5-49-35-48" id="T"/><path d="M141-36C126-15 110 5 73 4 37 3 15-17 15-53c-1-64 63-63 125-63 3-35-9-54-41-54-24 1-41 7-42 31l-33-3c5-37 33-52 76-52 45 0 72 20 72 64v82c-1 20 7 32 28 27v20c-31 9-61-2-59-35zM48-53c0 20 12 33 32 33 41-3 63-29 60-74-43 2-92-5-92 41" id="U"/><path d="M24-231v-30h32v30H24zM24 0v-190h32V0H24" id="V"/><path d="M24 0v-261h32V0H24" id="W"/><g id="e"><use transform="matrix(0.05,0,0,0.05,0,0)" xlink:href="#S"/><use transform="matrix(0.05,0,0,0.05,12,0)" xlink:href="#T"/><use transform="matrix(0.05,0,0,0.05,26.950000000000003,0)" xlink:href="#U"/><use transform="matrix(0.05,0,0,0.05,36.95,0)" xlink:href="#V"/><use transform="matrix(0.05,0,0,0.05,40.900000000000006,0)" xlink:href="#W"/></g><path d="M137 0h-34L2-248h35l83 218 83-218h36" id="X"/><path d="M233-177c-1 41-23 64-60 70L243 0h-38l-65-103H63V0H30v-248c88 3 205-21 203 71zM63-129c60-2 137 13 137-47 0-61-80-42-137-45v92" id="Y"/><path d="M212-179c-10-28-35-45-73-45-59 0-87 40-87 99 0 60 29 101 89 101 43 0 62-24 78-52l27 14C228-24 195 4 139 4 59 4 22-46 18-125c-6-104 99-153 187-111 19 9 31 26 39 46" id="Z"/><path d="M197 0v-115H63V0H30v-248h33v105h134v-105h34V0h-34" id="aa"/><path d="M101-251c82-7 93 87 43 132L82-64C71-53 59-42 53-27h129V0H18c2-99 128-94 128-182 0-28-16-43-45-43s-46 15-49 41l-32-3c6-41 34-60 81-64" id="ab"/><path d="M54-142c48-35 137-8 131 61C196 18 31 33 14-55l32-4c7 23 22 37 52 37 35-1 51-22 54-58 4-55-73-65-99-34H22l8-134h141v27H59" id="ac"/><g id="f"><use transform="matrix(0.05,0,0,0.05,0,0)" xlink:href="#X"/><use transform="matrix(0.05,0,0,0.05,10.65,0)" xlink:href="#E"/><use transform="matrix(0.05,0,0,0.05,22.65,0)" xlink:href="#Y"/><use transform="matrix(0.05,0,0,0.05,35.6,0)" xlink:href="#Z"/><use transform="matrix(0.05,0,0,0.05,48.550000000000004,0)" xlink:href="#aa"/><use transform="matrix(0.05,0,0,0.05,61.5,0)" xlink:href="#E"/><use transform="matrix(0.05,0,0,0.05,73.5,0)" xlink:href="#Y"/><use transform="matrix(0.05,0,0,0.05,86.45,0)" xlink:href="#M"/><use transform="matrix(0.05,0,0,0.05,92.4,0)" xlink:href="#ab"/><use transform="matrix(0.05,0,0,0.05,102.4,0)" xlink:href="#ac"/><use transform="matrix(0.05,0,0,0.05,112.4,0)" xlink:href="#ac"/><use transform="matrix(0.05,0,0,0.05,122.4,0)" xlink:href="#P"/></g><path d="M206 0h-36l-40-164L89 0H53L-1-190h32L70-26l43-164h34l41 164 42-164h31" id="ad"/><path d="M85-194c31 0 48 13 60 33l-1-100h32l1 261h-30c-2-10 0-23-3-31C134-8 116 4 85 4 32 4 16-35 15-94c0-66 23-100 70-100zm9 24c-40 0-46 34-46 75 0 40 6 74 45 74 42 0 51-32 51-76 0-42-9-74-50-73" id="ae"/><g id="g"><use transform="matrix(0.05,0,0,0.05,0,0)" xlink:href="#N"/><use transform="matrix(0.05,0,0,0.05,12,0)" xlink:href="#U"/><use transform="matrix(0.05,0,0,0.05,22,0)" xlink:href="#B"/><use transform="matrix(0.05,0,0,0.05,31,0)" xlink:href="#B"/><use transform="matrix(0.05,0,0,0.05,40,0)" xlink:href="#ad"/><use transform="matrix(0.05,0,0,0.05,52.95,0)" xlink:href="#G"/><use transform="matrix(0.05,0,0,0.05,62.95,0)" xlink:href="#D"/><use transform="matrix(0.05,0,0,0.05,68.9,0)" xlink:href="#ae"/></g><g id="h"><use transform="matrix(0.05432111111111112,0,0,0.05432111111111112,0,0)" xlink:href="#X"/><use transform="matrix(0.05432111111111112,0,0,0.05432111111111112,11.570396666666667,0)" xlink:href="#E"/><use transform="matrix(0.05432111111111112,0,0,0.05432111111111112,24.607463333333335,0)" xlink:href="#Y"/><use transform="matrix(0.05432111111111112,0,0,0.05432111111111112,38.676631111111114,0)" xlink:href="#Z"/><use transform="matrix(0.05432111111111112,0,0,0.05432111111111112,52.74579888888889,0)" xlink:href="#aa"/><use transform="matrix(0.05432111111111112,0,0,0.05432111111111112,66.81496666666668,0)" xlink:href="#E"/><use transform="matrix(0.05432111111111112,0,0,0.05432111111111112,79.85203333333334,0)" xlink:href="#Y"/></g><g id="i"><use transform="matrix(0.05432111111111112,0,0,0.05432111111111112,0,0)" xlink:href="#M"/><use transform="matrix(0.05432111111111112,0,0,0.05432111111111112,6.464212222222223,0)" xlink:href="#ab"/><use transform="matrix(0.05432111111111112,0,0,0.05432111111111112,17.328434444444447,0)" xlink:href="#ac"/><use transform="matrix(0.05432111111111112,0,0,0.05432111111111112,28.19265666666667,0)" xlink:href="#ac"/><use transform="matrix(0.05432111111111112,0,0,0.05432111111111112,39.056878888888896,0)" xlink:href="#P"/></g><g id="j"><use transform="matrix(0.05,0,0,0.05,0,0)" xlink:href="#Y"/><use transform="matrix(0.05,0,0,0.05,12.950000000000001,0)" xlink:href="#G"/><use transform="matrix(0.05,0,0,0.05,22.950000000000003,0)" xlink:href="#W"/><use transform="matrix(0.05,0,0,0.05,26.900000000000002,0)" xlink:href="#C"/><use transform="matrix(0.05,0,0,0.05,36.900000000000006,0)" xlink:href="#K"/><use transform="matrix(0.05,0,0,0.05,41.900000000000006,0)" xlink:href="#L"/></g><path d="M63-220v92h138v28H63V0H30v-248h175v28H63" id="af"/><g id="k"><use transform="matrix(0.05,0,0,0.05,0,0)" xlink:href="#M"/><use transform="matrix(0.05,0,0,0.05,5.95,0)" xlink:href="#af"/><use transform="matrix(0.05,0,0,0.05,16.900000000000002,0)" xlink:href="#O"/><use transform="matrix(0.05,0,0,0.05,28.900000000000002,0)" xlink:href="#P"/></g><g id="l"><use transform="matrix(0.05,0,0,0.05,0,0)" xlink:href="#K"/><use transform="matrix(0.05,0,0,0.05,5,0)" xlink:href="#Q"/><use transform="matrix(0.05,0,0,0.05,17.950000000000003,0)" xlink:href="#R"/></g><g id="m"><use transform="matrix(0.05,0,0,0.05,0,0)" xlink:href="#Y"/><use transform="matrix(0.05,0,0,0.05,12.950000000000001,0)" xlink:href="#G"/><use transform="matrix(0.05,0,0,0.05,22.950000000000003,0)" xlink:href="#W"/><use transform="matrix(0.05,0,0,0.05,26.900000000000002,0)" xlink:href="#C"/></g><g id="n"><use transform="matrix(0.05,0,0,0.05,0,0)" xlink:href="#Q"/><use transform="matrix(0.05,0,0,0.05,12.950000000000001,0)" xlink:href="#U"/><use transform="matrix(0.05,0,0,0.05,22.950000000000003,0)" xlink:href="#T"/><use transform="matrix(0.05,0,0,0.05,37.900000000000006,0)" xlink:href="#C"/></g><path d="M101-251c68 0 85 55 85 127S166 4 100 4C33 4 14-52 14-124c0-73 17-127 87-127zm-1 229c47 0 54-49 54-102s-4-102-53-102c-51 0-55 48-55 102 0 53 5 102 54 102" id="ag"/><g id="o"><use transform="matrix(0.05,0,0,0.05,0,0)" xlink:href="#X"/><use transform="matrix(0.05,0,0,0.05,10.65,0)" xlink:href="#E"/><use transform="matrix(0.05,0,0,0.05,22.65,0)" xlink:href="#Y"/><use transform="matrix(0.05,0,0,0.05,35.6,0)" xlink:href="#Z"/><use transform="matrix(0.05,0,0,0.05,48.550000000000004,0)" xlink:href="#aa"/><use transform="matrix(0.05,0,0,0.05,61.5,0)" xlink:href="#E"/><use transform="matrix(0.05,0,0,0.05,73.5,0)" xlink:href="#Y"/><use transform="matrix(0.05,0,0,0.05,86.45,0)" xlink:href="#M"/><use transform="matrix(0.05,0,0,0.05,92.4,0)" xlink:href="#ac"/><use transform="matrix(0.05,0,0,0.05,102.4,0)" xlink:href="#ag"/><use transform="matrix(0.05,0,0,0.05,112.4,0)" xlink:href="#P"/></g><path d="M115-194c55 1 70 41 70 98S169 2 115 4C84 4 66-9 55-30l1 105H24l-1-265h31l2 30c10-21 28-34 59-34zm-8 174c40 0 45-34 45-75s-6-73-45-74c-42 0-51 32-51 76 0 43 10 73 51 73" id="ah"/><g id="p"><use transform="matrix(0.05,0,0,0.05,0,0)" xlink:href="#Y"/><use transform="matrix(0.05,0,0,0.05,12.950000000000001,0)" xlink:href="#C"/><use transform="matrix(0.05,0,0,0.05,22.950000000000003,0)" xlink:href="#ah"/><use transform="matrix(0.05,0,0,0.05,32.95,0)" xlink:href="#G"/><use transform="matrix(0.05,0,0,0.05,42.95,0)" xlink:href="#D"/><use transform="matrix(0.05,0,0,0.05,48.900000000000006,0)" xlink:href="#J"/><use transform="matrix(0.05,0,0,0.05,53.900000000000006,0)" xlink:href="#B"/></g><g id="q"><use transform="matrix(0.05,0,0,0.05,0,0)" xlink:href="#Y"/><use transform="matrix(0.05,0,0,0.05,12.950000000000001,0)" xlink:href="#C"/><use transform="matrix(0.05,0,0,0.05,22.950000000000003,0)" xlink:href="#ah"/><use transform="matrix(0.05,0,0,0.05,32.95,0)" xlink:href="#G"/><use transform="matrix(0.05,0,0,0.05,42.95,0)" xlink:href="#D"/><use transform="matrix(0.05,0,0,0.05,48.900000000000006,0)" xlink:href="#J"/><use transform="matrix(0.05,0,0,0.05,53.900000000000006,0)" xlink:href="#K"/><use transform="matrix(0.05,0,0,0.05,58.900000000000006,0)" xlink:href="#L"/></g><path d="M177-190C167-65 218 103 67 71c-23-6-38-20-44-43l32-5c15 47 100 32 89-28v-30C133-14 115 1 83 1 29 1 15-40 15-95c0-56 16-97 71-98 29-1 48 16 59 35 1-10 0-23 2-32h30zM94-22c36 0 50-32 50-73 0-42-14-75-50-75-39 0-46 34-46 75s6 73 46 73" id="ai"/><path d="M179-190L93 31C79 59 56 82 12 73V49c39 6 53-20 64-50L1-190h34L92-34l54-156h33" id="aj"/><g id="r"><use transform="matrix(0.05,0,0,0.05,0,0)" xlink:href="#Z"/><use transform="matrix(0.05,0,0,0.05,12.950000000000001,0)" xlink:href="#U"/><use transform="matrix(0.05,0,0,0.05,22.950000000000003,0)" xlink:href="#J"/><use transform="matrix(0.05,0,0,0.05,27.950000000000003,0)" xlink:href="#C"/><use transform="matrix(0.05,0,0,0.05,37.95,0)" xlink:href="#ai"/><use transform="matrix(0.05,0,0,0.05,47.95,0)" xlink:href="#G"/><use transform="matrix(0.05,0,0,0.05,57.95,0)" xlink:href="#D"/><use transform="matrix(0.05,0,0,0.05,63.900000000000006,0)" xlink:href="#aj"/><use transform="matrix(0.05,0,0,0.05,72.9,0)" xlink:href="#K"/><use transform="matrix(0.05,0,0,0.05,77.9,0)" xlink:href="#L"/></g><g id="s"><use transform="matrix(0.05,0,0,0.05,0,0)" xlink:href="#L"/><use transform="matrix(0.05,0,0,0.05,12.950000000000001,0)" xlink:href="#U"/><use transform="matrix(0.05,0,0,0.05,22.950000000000003,0)" xlink:href="#J"/><use transform="matrix(0.05,0,0,0.05,27.950000000000003,0)" xlink:href="#C"/></g><path d="M240 0l2-218c-23 76-54 145-80 218h-23L58-218 59 0H30v-248h44l77 211c21-75 51-140 76-211h43V0h-30" id="ak"/><g id="t"><use transform="matrix(0.05,0,0,0.05,0,0)" xlink:href="#L"/><use transform="matrix(0.05,0,0,0.05,12.950000000000001,0)" xlink:href="#E"/><use transform="matrix(0.05,0,0,0.05,23.6,0)" xlink:href="#R"/><use transform="matrix(0.05,0,0,0.05,34.550000000000004,0)" xlink:href="#S"/><use transform="matrix(0.05,0,0,0.05,46.550000000000004,0)" xlink:href="#R"/><use transform="matrix(0.05,0,0,0.05,57.5,0)" xlink:href="#K"/><use transform="matrix(0.05,0,0,0.05,62.5,0)" xlink:href="#ak"/><use transform="matrix(0.05,0,0,0.05,77.45,0)" xlink:href="#S"/></g><g id="u"><use transform="matrix(0.05,0,0,0.05,0,0)" xlink:href="#Y"/><use transform="matrix(0.05,0,0,0.05,12.950000000000001,0)" xlink:href="#C"/><use transform="matrix(0.05,0,0,0.05,22.950000000000003,0)" xlink:href="#F"/><use transform="matrix(0.05,0,0,0.05,31.950000000000003,0)" xlink:href="#G"/><use transform="matrix(0.05,0,0,0.05,41.95,0)" xlink:href="#T"/><use transform="matrix(0.05,0,0,0.05,56.900000000000006,0)" xlink:href="#T"/><use transform="matrix(0.05,0,0,0.05,71.85000000000001,0)" xlink:href="#C"/><use transform="matrix(0.05,0,0,0.05,81.85000000000001,0)" xlink:href="#I"/><use transform="matrix(0.05,0,0,0.05,91.85000000000001,0)" xlink:href="#ae"/><use transform="matrix(0.05,0,0,0.05,101.85000000000001,0)" xlink:href="#U"/><use transform="matrix(0.05,0,0,0.05,111.85000000000001,0)" xlink:href="#J"/><use transform="matrix(0.05,0,0,0.05,116.85000000000001,0)" xlink:href="#V"/><use transform="matrix(0.05,0,0,0.05,120.80000000000001,0)" xlink:href="#G"/><use transform="matrix(0.05,0,0,0.05,130.8,0)" xlink:href="#I"/><use transform="matrix(0.05,0,0,0.05,140.8,0)" xlink:href="#B"/></g><path d="M195 0l-74-108L45 0H8l94-129-87-119h37l69 98 67-98h37l-84 118L233 0h-38" id="al"/><g id="v"><use transform="matrix(0.05,0,0,0.05,0,0)" xlink:href="#R"/><use transform="matrix(0.05,0,0,0.05,10.950000000000001,0)" xlink:href="#S"/><use transform="matrix(0.05,0,0,0.05,22.950000000000003,0)" xlink:href="#al"/><use transform="matrix(0.05,0,0,0.05,34.95,0)" xlink:href="#R"/></g><g id="w"><use transform="matrix(0.05,0,0,0.05,0,0)" xlink:href="#Y"/><use transform="matrix(0.05,0,0,0.05,12.950000000000001,0)" xlink:href="#C"/><use transform="matrix(0.05,0,0,0.05,22.950000000000003,0)" xlink:href="#ah"/><use transform="matrix(0.05,0,0,0.05,32.95,0)" xlink:href="#G"/><use transform="matrix(0.05,0,0,0.05,42.95,0)" xlink:href="#D"/><use transform="matrix(0.05,0,0,0.05,48.900000000000006,0)" xlink:href="#J"/><use transform="matrix(0.05,0,0,0.05,53.900000000000006,0)" xlink:href="#Z"/><use transform="matrix(0.05,0,0,0.05,66.85000000000001,0)" xlink:href="#U"/><use transform="matrix(0.05,0,0,0.05,76.85000000000001,0)" xlink:href="#J"/><use transform="matrix(0.05,0,0,0.05,81.85000000000001,0)" xlink:href="#C"/><use transform="matrix(0.05,0,0,0.05,91.85000000000001,0)" xlink:href="#ai"/><use transform="matrix(0.05,0,0,0.05,101.85000000000001,0)" xlink:href="#G"/><use transform="matrix(0.05,0,0,0.05,111.85000000000001,0)" xlink:href="#D"/><use transform="matrix(0.05,0,0,0.05,117.80000000000001,0)" xlink:href="#aj"/></g><g id="x"><use transform="matrix(0.05,0,0,0.05,0,0)" xlink:href="#Z"/><use transform="matrix(0.05,0,0,0.05,12.950000000000001,0)" xlink:href="#U"/><use transform="matrix(0.05,0,0,0.05,22.950000000000003,0)" xlink:href="#J"/><use transform="matrix(0.05,0,0,0.05,27.950000000000003,0)" xlink:href="#C"/><use transform="matrix(0.05,0,0,0.05,37.95,0)" xlink:href="#ai"/><use transform="matrix(0.05,0,0,0.05,47.95,0)" xlink:href="#G"/><use transform="matrix(0.05,0,0,0.05,57.95,0)" xlink:href="#D"/><use transform="matrix(0.05,0,0,0.05,63.900000000000006,0)" xlink:href="#aj"/><use transform="matrix(0.05,0,0,0.05,72.9,0)" xlink:href="#K"/><use transform="matrix(0.05,0,0,0.05,77.9,0)" xlink:href="#L"/></g><g id="y"><use transform="matrix(0.05,0,0,0.05,0,0)" xlink:href="#L"/><use transform="matrix(0.05,0,0,0.05,12.950000000000001,0)" xlink:href="#C"/><use transform="matrix(0.05,0,0,0.05,22.950000000000003,0)" xlink:href="#B"/><use transform="matrix(0.05,0,0,0.05,31.950000000000003,0)" xlink:href="#F"/><use transform="matrix(0.05,0,0,0.05,40.95,0)" xlink:href="#D"/><use transform="matrix(0.05,0,0,0.05,46.900000000000006,0)" xlink:href="#V"/><use transform="matrix(0.05,0,0,0.05,50.85000000000001,0)" xlink:href="#ah"/><use transform="matrix(0.05,0,0,0.05,60.85,0)" xlink:href="#J"/><use transform="matrix(0.05,0,0,0.05,65.85000000000001,0)" xlink:href="#V"/><use transform="matrix(0.05,0,0,0.05,69.80000000000001,0)" xlink:href="#G"/><use transform="matrix(0.05,0,0,0.05,79.80000000000001,0)" xlink:href="#I"/></g><path d="M140-251c81 0 123 46 123 126C263-46 219 4 140 4 59 4 17-45 17-125s42-126 123-126zm0 227c63 0 89-41 89-101s-29-99-89-99c-61 0-89 39-89 99S79-25 140-24" id="am"/><g id="z"><use transform="matrix(0.05,0,0,0.05,0,0)" xlink:href="#am"/><use transform="matrix(0.05,0,0,0.05,14,0)" xlink:href="#ah"/><use transform="matrix(0.05,0,0,0.05,24,0)" xlink:href="#C"/><use transform="matrix(0.05,0,0,0.05,34,0)" xlink:href="#I"/><use transform="matrix(0.05,0,0,0.05,44,0)" xlink:href="#E"/><use transform="matrix(0.05,0,0,0.05,56,0)" xlink:href="#K"/><use transform="matrix(0.05,0,0,0.05,61,0)" xlink:href="#N"/><use transform="matrix(0.05,0,0,0.05,73,0)" xlink:href="#D"/><use transform="matrix(0.05,0,0,0.05,78.95,0)" xlink:href="#G"/><use transform="matrix(0.05,0,0,0.05,88.95,0)" xlink:href="#T"/><use transform="matrix(0.05,0,0,0.05,103.9,0)" xlink:href="#ah"/><use transform="matrix(0.05,0,0,0.05,113.9,0)" xlink:href="#J"/></g></defs></g></svg>